<?xml version="1.0" encoding="UTF-8"?>
<!DOCTYPE svg PUBLIC "-//W3C//DTD SVG 1.1//EN" "http://www.w3.org/Graphics/SVG/1.1/DTD/svg11.dtd">
<svg xmlns="http://www.w3.org/2000/svg" version="1.1" width="858px" height="858px" style="shape-rendering:geometricPrecision; text-rendering:geometricPrecision; image-rendering:optimizeQuality; fill-rule:evenodd; clip-rule:evenodd" xmlns:xlink="http://www.w3.org/1999/xlink">
<g><path style="opacity:1" fill="#711e8c" d="M 126.5,-0.5 C 327.833,-0.5 529.167,-0.5 730.5,-0.5C 802.058,12.0578 844.391,54.0578 857.5,125.5C 857.5,327.5 857.5,529.5 857.5,731.5C 844.387,802.946 802.054,844.946 730.5,857.5C 529.167,857.5 327.833,857.5 126.5,857.5C 54.9462,844.946 12.6129,802.946 -0.5,731.5C -0.5,529.5 -0.5,327.5 -0.5,125.5C 12.6161,54.0506 54.9494,12.0506 126.5,-0.5 Z"/></g>
<g><path style="opacity:1" fill="#eee5f0" d="M 510.5,143.5 C 437.144,143.179 363.811,143.512 290.5,144.5C 291.263,143.732 292.263,143.232 293.5,143C 366.001,142.168 438.334,142.334 510.5,143.5 Z"/></g>
<g><path style="opacity:1" fill="#fefdfe" d="M 510.5,143.5 C 536.199,148.031 552.032,163.031 558,188.5C 561.198,216.109 550.698,236.442 526.5,249.5C 523.603,250.129 520.936,251.129 518.5,252.5C 516.073,252.523 513.74,253.023 511.5,254C 479.835,254.5 448.168,254.667 416.5,254.5C 416.333,271.837 416.5,289.17 417,306.5C 446.167,335.667 475.333,364.833 504.5,394C 537.167,394.333 569.833,394.667 602.5,395C 611.482,398.477 616.482,404.977 617.5,414.5C 617.333,444.169 617.5,473.835 618,503.5C 618.717,502.956 619.217,502.289 619.5,501.5C 623.631,497.87 627.631,494.037 631.5,490C 641.444,487.701 646.61,491.534 647,501.5C 636.565,513.937 625.398,525.771 613.5,537C 609.167,540.333 604.833,540.333 600.5,537C 589.303,526.137 578.47,514.971 568,503.5C 566.268,490.939 571.435,486.772 583.5,491C 588,495.5 592.5,500 597,504.5C 597.667,475.5 597.667,446.5 597,417.5C 596.626,416.584 596.126,415.75 595.5,415C 564.833,414.333 534.167,414.333 503.5,415C 471.833,446.667 440.167,478.333 408.5,510C 405.167,512 401.833,512 398.5,510C 366.965,478.299 335.299,446.799 303.5,415.5C 273.003,414.336 242.336,414.169 211.5,415C 210.944,415.383 210.611,415.883 210.5,416.5C 209.337,484.096 209.17,551.763 210,619.5C 210.5,620 211,620.5 211.5,621C 292.5,621.333 373.5,621.667 454.5,622C 460.542,625.748 462.042,630.915 459,637.5C 457.786,639.049 456.286,640.215 454.5,641C 441.171,641.5 427.837,641.667 414.5,641.5C 414.667,662.503 414.5,683.503 414,704.5C 410.816,712.337 405.316,714.504 397.5,711C 395.19,709.363 393.69,707.196 393,704.5C 392.5,683.503 392.333,662.503 392.5,641.5C 329.499,641.667 266.499,641.5 203.5,641C 196.609,638.377 192.109,633.544 190,626.5C 189.333,554.167 189.333,481.833 190,409.5C 192.833,402.667 197.667,397.833 204.5,395C 237.167,394.667 269.833,394.333 302.5,394C 331.667,364.833 360.833,335.667 390,306.5C 390.5,289.17 390.667,271.837 390.5,254.5C 358.5,254.5 326.5,254.5 294.5,254.5C 290.767,252.589 286.767,251.256 282.5,250.5C 260.272,240.251 248.605,222.751 247.5,198C 248.887,176.302 258.887,159.969 277.5,149C 281.474,146.398 285.807,144.898 290.5,144.5C 363.811,143.512 437.144,143.179 510.5,143.5 Z"/></g>
<g><path style="opacity:1" fill="#bf9eca" d="M 282.5,250.5 C 286.767,251.256 290.767,252.589 294.5,254.5C 290.085,254.139 286.085,252.806 282.5,250.5 Z"/></g>
<g><path style="opacity:1" fill="#9b69ad" d="M 526.5,249.5 C 524.383,251.655 521.716,252.655 518.5,252.5C 520.936,251.129 523.603,250.129 526.5,249.5 Z"/></g>
<g><path style="opacity:1" fill="#9059a5" d="M 303.5,415.5 C 272.456,415.182 241.456,415.515 210.5,416.5C 210.611,415.883 210.944,415.383 211.5,415C 242.336,414.169 273.003,414.336 303.5,415.5 Z"/></g>
<g><path style="opacity:1" fill="#85479a" d="M 617.5,414.5 C 618.167,443.5 618.833,472.5 619.5,501.5C 619.217,502.289 618.717,502.956 618,503.5C 617.5,473.835 617.333,444.169 617.5,414.5 Z"/></g>
<g><path style="opacity:1" fill="#fdfdfd" d="M 483.5,555.5 C 543.168,555.333 602.834,555.5 662.5,556C 664.378,557.543 665.878,559.376 667,561.5C 667.982,600.56 667.649,639.56 666,678.5C 664.421,680.041 662.587,681.208 660.5,682C 601.084,682.992 541.751,682.659 482.5,681C 480.19,679.363 478.69,677.196 478,674.5C 477.333,637.167 477.333,599.833 478,562.5C 478.967,559.379 480.8,557.046 483.5,555.5 Z"/></g>
</svg>
